HIERARCHY
ROOT Hips
{
  OFFSET 279.157 85.6768 304.565
  CHANNELS 6 Xposition Yposition Zposition Zrotation Xrotation Yrotation
  JOINT LeftUpLeg
  {
    OFFSET 8.64259 1.95398 -2.38835
    CHANNELS 3 Zrotation Xrotation Yrotation
    JOINT LeftLeg
    {
      OFFSET 43.7702 0 0
      CHANNELS 3 Zrotation Xrotation Yrotation
      JOINT LeftFoot
      {
        OFFSET 40.6238 0 0
        CHANNELS 3 Zrotation Xrotation Yrotation
        JOINT LeftToeBase
        {
          OFFSET 12.7242 0 0
          CHANNELS 3 Zrotation Xrotation Yrotation
          End Site
          {
            OFFSET 0 0 0
          }
        }
      }
    }
  }
  JOINT RightUpLeg
  {
    OFFSET -8.2249 1.95398 -2.59336
    CHANNELS 3 Zrotation Xrotation Yrotation
    JOINT RightLeg
    {
      OFFSET 43.5653 0 0
      CHANNELS 3 Zrotation Xrotation Yrotation
      JOINT RightFoot
      {
        OFFSET 40.6238 0 0
        CHANNELS 3 Zrotation Xrotation Yrotation
        JOINT RightToeBase
        {
          OFFSET 12.7242 0 0
          CHANNELS 3 Zrotation Xrotation Yrotation
          End Site
          {
            OFFSET 0 0 0
          }
        }
      }
    }
  }
  JOINT Spine
  {
    OFFSET 0.165834 0.87714 6.61349
    CHANNELS 3 Zrotation Xrotation Yrotation
    JOINT Spine1
    {
      OFFSET 7.38963 1.71661e-005 0
      CHANNELS 3 Zrotation Xrotation Yrotation
      JOINT Spine2
      {
        OFFSET 11.9445 1.14441e-005 0
        CHANNELS 3 Zrotation Xrotation Yrotation
        JOINT Spine3
        {
          OFFSET 14.7254 4.19617e-005 0
          CHANNELS 3 Zrotation Xrotation Yrotation
          JOINT Spine4
          {
            OFFSET 10.9679 0 0
            CHANNELS 3 Zrotation Xrotation Yrotation
            JOINT RightShoulder
            {
              OFFSET 2.46616 -1.6653 3.69651
              CHANNELS 3 Zrotation Xrotation Yrotation
              JOINT RightArm
              {
                OFFSET 13.0012 0 0
                CHANNELS 3 Zrotation Xrotation Yrotation
                JOINT RightForeArm
                {
                  OFFSET 28.7848 1.52588e-005 0
                  CHANNELS 3 Zrotation Xrotation Yrotation
                  JOINT RightHand
                  {
                    OFFSET 26.5688 1.52588e-005 0
                    CHANNELS 3 Zrotation Xrotation Yrotation
                    End Site
                    {
                      OFFSET 0 0 0
                    }
                  }
                }
              }
            }
            JOINT LeftShoulder
            {
              OFFSET 2.38034 -1.29275 -3.7523
              CHANNELS 3 Zrotation Xrotation Yrotation
              JOINT LeftArm
              {
                OFFSET 16.3182 6.10351e-005 0
                CHANNELS 3 Zrotation Xrotation Yrotation
                JOINT LeftForeArm
                {
                  OFFSET 27.0901 0 0
                  CHANNELS 3 Zrotation Xrotation Yrotation
                  JOINT LeftHand
                  {
                    OFFSET 24.5451 1.52588e-005 0
                    CHANNELS 3 Zrotation Xrotation Yrotation
                    End Site
                    {
                      OFFSET 0 0 0
                    }
                  }
                }
              }
            }
            JOINT Neck
            {
              OFFSET 5.0226 -0.0266342 0
              CHANNELS 3 Zrotation Xrotation Yrotation
              JOINT Head
              {
                OFFSET 6.69364 2.86102e-005 0
                CHANNELS 3 Zrotation Xrotation Yrotation
                End Site
                {
                  OFFSET 0 0 0
                }
              }
            }
          }
        }
      }
    }
  }
}
MOTION
Frames:	7
Frame Time:	0.0416667
272.072 83.4862 271.024 -79.7186 40.1228 -103.355 -165.295 49.2494 76.8336 -70.2429 6.50171 -7.50479 87.2958 14.1886 -0.248234 19.322 -5.96599 2.44544 170.481 16.6887 91.562 -102.12 -4.89477 -2.62562 64.3805 1.89014 2.58509 99.3712 -17.7921 13.0234 1.05764 8.18147 -88.7716 10.481 2.67032 2.20429 -1.18892 2.76474 2.08462 -23.7215 1.88469 2.90466 -3.70889 1.88468 2.90465 91 -24.5308 -106.883 40.4198 -16.1318 -0.017901 -82.0244 62.0268 -47.6617 -8.07542 0.329784 -31.8263 -93.3013 -53.396 74.6968 -5.7349 14.7083 -9.03897 163.527 -13.9686 -63.5592 -126.453 -44.813 20.2813 25.7339 -9.8518 -15.993 -8.41804 -3.97342 5.58207 
260.56 90.8379 257.24 -83.6164 38.1777 -103.627 -170.496 22.7142 80.0056 -50.1193 -1.53437 -4.81317 90.5107 15.9939 -8.2034 29.6847 0.538363 -0.0441827 171.11 31.2818 88.3579 -105.075 -0.918781 -2.6104 65.8789 -6.3195 -6.27884 57.1183 -8.76092 6.45342 -0.10735 8.19415 -88.4145 10.4707 0.513188 3.09339 -1.20429 0.648727 3.06784 -23.7069 -0.439632 3.10473 -3.69424 -0.439632 3.10472 93.089 -26.6453 -101.613 54.8507 -17.3587 21.2928 -55.2674 68.9057 -92.7894 -17.5496 4.55346 -35.6028 -92.2521 -52.7292 76.0413 -0.660956 24.5709 -41.9274 -163.823 0.044247 -83.6401 -135.13 -14.1701 -2.88249 20.3448 -6.47413 -16.6374 -6.4804 -1.17853 4.75009 
247.789 91.5973 245.281 -85.2707 37.8899 -96.9142 -171.104 4.95858 87.8679 -39.3471 4.2961 -1.90317 91.1781 20.9603 -4.11503 37.9965 4.151 5.04269 174.901 45.0459 91.975 -101.363 -7.47184 -3.10843 71.7343 -8.96621 -9.12778 20.1645 0.9444 10.4806 -1.63052 8.1869 -89.0729 10.519 -2.82142 2.11347 -1.15054 -2.72569 2.23562 -23.7067 -3.32607 1.16724 -3.69405 -3.32605 1.16724 94.3814 -20.7398 -100.741 61.6893 -14.0713 37.8945 4.07153 39.3848 -95.8157 -10.8716 -0.0728794 -90.364 -87.5733 -39.017 80.199 4.46519 23.7279 -60.2321 -106.718 7.33886 -93.8097 -37.3968 6.53039 -18.9404 18.9582 1.20235 -12.7266 -7.18352 4.88601 4.21764 
234.167 94.9848 231.631 -87.0111 42.5801 -88.7404 -168.691 -12.8777 95.9982 -21.5343 8.84454 0.108247 64.5537 6.26773 2.69197 56.9871 14.8799 6.46635 178.314 48.0676 96.5679 -76.0117 -2.48344 -2.17614 72.3075 -6.74126 -4.04298 23.014 0.0653712 10.7163 -2.31349 7.82732 -90.2755 11.2357 -4.73219 -0.0784052 -0.42666 -4.73101 0.130408 -23.0262 -4.48951 -1.49989 -3.01352 -4.48949 -1.49989 95.5466 -16.3299 -99.3629 59.3471 -15.6693 51.329 16.5509 21.9767 -72.5736 0.141488 9.77358 -132.623 -86.3053 -33.4293 81.2137 -3.53508 17.4087 -53.2028 -115.597 10.0615 -88.2247 -42.0374 6.0265 -21.1975 15.2125 9.32603 -3.84172 -11.8907 9.82309 3.85541 
219.347 97.787 216.636 -85.7744 48.1327 -83.9585 -170.157 -18.6917 97.388 -23.3913 9.26911 4.05746 54.5128 -4.09905 0.509219 14.5365 -6.86008 -2.43111 -178.311 42.3788 99.7352 -40.0622 -7.92986 -1.2513 68.4065 -4.57925 -0.682423 21.7356 1.475 4.89343 -2.6341 7.95002 -91.515 10.913 -5.9448 -2.45307 -0.746188 -6.04695 -2.18831 -23.3437 -4.93282 -4.12867 -3.33102 -4.93281 -4.12867 93.147 -11.999 -107.752 57.8645 -11.6812 53.0421 -19.5884 2.02977 -65.6741 -32.6895 31.0806 -97.802 -84.8881 -32.3274 83.6236 0.156924 13.1364 -43.5964 -120.29 15.2908 -82.4591 -37.0279 5.5141 -22.2013 15.5148 16.4604 7.02926 -12.2888 13.9663 2.2778 
206.774 96.8321 202.6 -89.0192 51.7221 -84.143 -170.013 -18.5824 92.4113 -42.6881 18.6292 1.32991 59.0407 -0.17912 4.36486 23.3588 -1.66462 -4.49981 -177.369 35.2501 98.1042 -24.2374 -20.1848 -1.64836 70.1085 -6.77513 -1.60784 27.0579 0.208629 2.71713 -2.23501 7.87321 -91.3663 11.0839 -5.08253 -2.22158 -0.578609 -5.17532 -1.99529 -23.1571 -4.17999 -3.64769 -3.14445 -4.18 -3.64769 92.2781 -19.0576 -106.508 48.4414 -10.5011 45.8374 -26.7697 -7.01167 -64.9694 -41.1484 21.5845 -67.9776 -87.5588 -37.8765 79.9679 2.61352 24.0317 -35.6879 -124.686 13.6222 -84.9116 -32.8302 3.90177 -19.0224 12.8643 16.9693 8.49197 -9.86591 14.376 1.82677 
194.869 95.0554 188.573 -97.9061 51.7145 -78.9712 -164.026 -9.43514 95.852 -69.6055 -1.41479 -0.128537 59.2856 -0.311478 4.69528 23.9013 -0.523624 -7.74216 179.949 26.5718 97.3657 -27.8575 -13.5681 -0.289627 65.7909 -3.64239 -0.865523 23.0928 0.840527 5.93819 -1.78724 8.16813 -91.0751 10.5047 -4.05366 -1.77722 -1.16084 -4.12793 -1.59685 -23.724 -3.33218 -2.91404 -3.71139 -3.33218 -2.91404 90.7192 -27.9774 -105.994 39.0216 -5.48864 30.0453 -29.4024 -14.8722 -65.1207 -44.2025 10.0156 -36.1716 -88.729 -47.3359 80.0683 -1.5696 32.5633 -23.8975 -137.225 0.553496 -89.3858 -32.5104 3.5764 -17.8173 10.7777 15.1897 9.5809 -8.2087 12.632 0.997993 
